<svg width="86" height="86" viewBox="0 0 86 86" fill="none" xmlns="http://www.w3.org/2000/svg">
<path d="M25.0833 32.25H10.75V71.6667H25.0833V32.25Z" fill="black"/>
<path d="M17.9167 25.0833C21.8747 25.0833 25.0833 21.8747 25.0833 17.9167C25.0833 13.9586 21.8747 10.75 17.9167 10.75C13.9586 10.75 10.75 13.9586 10.75 17.9167C10.75 21.8747 13.9586 25.0833 17.9167 25.0833Z" fill="black"/>
<path d="M59.125 29.5625C56.7097 29.5691 54.3271 30.1215 52.1553 31.1785C49.9835 32.2355 48.0787 33.7697 46.5833 35.6665V32.25H32.25V71.6667H46.5833V46.5833C46.5833 44.6826 47.3384 42.8597 48.6824 41.5157C50.0264 40.1717 51.8493 39.4167 53.75 39.4167C55.6507 39.4167 57.4736 40.1717 58.8176 41.5157C60.1616 42.8597 60.9167 44.6826 60.9167 46.5833V71.6667H75.25V45.6875C75.25 41.4109 73.5511 37.3094 70.5271 34.2854C67.5031 31.2614 63.4016 29.5625 59.125 29.5625V29.5625Z" fill="black"/>
</svg>
