<svg width="86" height="86" viewBox="0 0 86 86" fill="none" xmlns="http://www.w3.org/2000/svg">
<path d="M80.1507 22.8527C77.4035 24.0739 74.447 24.8976 71.3448 25.2662C74.5122 23.37 76.9408 20.3665 78.0861 16.7834C75.1235 18.5416 71.8439 19.8173 68.3504 20.506C65.5546 17.5267 61.5696 15.6639 57.1599 15.6639C48.6938 15.6639 41.8297 22.5281 41.8297 30.9957C41.8297 32.1956 41.9647 33.3651 42.2271 34.4892C29.4848 33.849 18.1866 27.7464 10.6247 18.4703C9.30492 20.7336 8.54948 23.367 8.54948 26.1794C8.54948 31.4978 11.2557 36.1912 15.3697 38.9399C12.8576 38.8595 10.4927 38.1693 8.42509 37.021C8.42358 37.0847 8.42358 37.1499 8.42358 37.2151C8.42358 44.6421 13.7086 50.8373 20.7229 52.248C19.4366 52.5969 18.0819 52.785 16.6833 52.785C15.6943 52.785 14.7341 52.6895 13.7981 52.5089C15.7504 58.5995 21.4116 63.0335 28.1196 63.1564C22.8724 67.2688 16.2631 69.7202 9.07889 69.7202C7.84259 69.7202 6.62145 69.6474 5.42155 69.5048C12.2083 73.8569 20.2663 76.3932 28.9235 76.3932C57.125 76.3932 72.5447 53.0323 72.5447 32.772C72.5447 32.1076 72.5311 31.4447 72.5022 30.7863C75.4967 28.6292 78.0967 25.9276 80.1507 22.8527Z" fill="black"/>
</svg>
